<?xml version="1.0" standalone="no"?>
<!DOCTYPE svg PUBLIC "-//W3C//DTD SVG 20010904//EN"
 "http://www.w3.org/TR/2001/REC-SVG-20010904/DTD/svg10.dtd">
<svg version="1.0" xmlns="http://www.w3.org/2000/svg"
 width="208.000000pt" height="208.000000pt" viewBox="0 0 208.000000 208.000000"
 preserveAspectRatio="xMidYMid meet">
<metadata>
Created by potrace 1.14, written by Peter Selinger 2001-2017
</metadata>
<g transform="translate(0.000000,208.000000) scale(0.100000,-0.100000)"
fill="#000000" stroke="none">
<path d="M0 1525 c0 -477 2 -555 14 -555 8 0 18 5 21 10 8 14 25 3 25 -16 0
-8 9 -34 20 -56 24 -51 27 -128 5 -128 -8 0 -15 9 -15 20 0 13 -7 20 -20 20
-15 0 -20 -7 -20 -25 0 -16 -6 -25 -15 -25 -12 0 -15 -13 -15 -55 0 -54 1 -56
26 -53 16 2 29 -3 32 -10 2 -7 -2 -13 -9 -11 -52 7 -49 24 -49 -321 l0 -320
768 1 c422 0 758 4 747 9 -19 7 -19 8 5 14 14 4 77 15 140 24 l115 18 -3 41
c-2 23 2 44 8 48 7 4 8 11 1 19 -5 6 -11 34 -13 61 l-3 50 -42 3 c-40 3 -43 5
-43 32 0 16 5 32 12 36 7 5 8 3 3 -7 -7 -11 -5 -11 11 1 10 8 22 19 25 23 10
14 10 111 -1 127 -9 13 -10 13 -11 0 -1 -21 -27 50 -28 78 -1 12 -5 22 -11 22
-6 0 -10 -27 -10 -62 0 -38 -4 -58 -9 -53 -9 9 -26 87 -36 160 -9 62 -40 144
-57 148 -9 3 -21 22 -27 44 -12 46 -50 77 -104 87 -34 6 -37 9 -25 23 11 15
11 16 -7 9 -48 -18 -78 -19 -87 -3 -6 12 -17 15 -41 10 -34 -6 -84 -53 -147
-138 -20 -27 -44 -56 -53 -64 -10 -7 -17 -19 -17 -25 0 -7 -12 -23 -27 -37
-14 -13 -23 -18 -19 -11 4 7 2 12 -6 13 -81 5 -82 5 -88 -26 -9 -42 -53 -123
-88 -165 -28 -32 -32 -34 -46 -19 -19 18 -31 102 -22 151 7 40 50 63 113 61
38 -1 41 0 38 24 -1 14 4 27 11 30 9 3 12 14 8 29 -4 13 -1 31 5 38 9 11 8 18
-7 33 -32 31 -33 51 -6 78 20 20 29 23 40 14 7 -6 11 -15 8 -20 -7 -12 5 -49
16 -49 15 0 35 43 22 48 -13 4 -5 53 14 90 7 14 10 31 7 38 -3 8 2 25 10 38
12 17 13 26 5 34 -7 7 -9 15 -5 18 4 4 16 -5 28 -19 20 -27 69 -38 69 -16 0 6
-9 8 -22 4 -23 -7 -23 -7 -3 8 17 14 18 19 7 36 -7 12 -9 21 -5 21 5 0 7 34 7
75 -2 118 18 92 45 -59 6 -34 20 -69 32 -82 30 -32 114 -75 157 -79 21 -2 51
-11 67 -19 17 -9 33 -16 37 -16 4 0 28 -14 53 -31 47 -32 117 -117 129 -156 5
-15 17 -23 39 -26 l32 -4 -32 -1 c-18 -1 -33 -4 -33 -7 0 -24 39 -108 65 -140
18 -22 48 -65 67 -95 42 -66 76 -99 86 -83 11 18 34 18 72 1 29 -14 31 -17 13
-17 -19 -1 -23 -7 -23 -31 0 -26 4 -30 28 -32 15 0 34 -1 42 -2 8 -1 16 -9 18
-19 2 -11 -2 -18 -10 -16 -25 3 -36 -1 -35 -13 1 -45 -6 -69 -28 -89 -14 -14
-25 -35 -25 -50 0 -38 -22 -54 -52 -37 -57 31 -82 11 -71 -58 3 -20 1 -34 -5
-34 -5 0 -12 -14 -14 -30 -5 -30 -4 -30 41 -29 25 1 36 4 24 6 -13 2 -23 9
-23 15 0 6 9 8 20 5 11 -3 20 -1 20 4 0 5 11 9 25 9 18 0 25 -5 25 -20 0 -18
7 -20 85 -20 l85 0 0 310 0 310 -27 1 -28 1 28 10 27 10 0 257 c0 142 -3 260
-6 264 -4 3 -14 -4 -24 -16 -17 -21 -19 -21 -37 -4 -25 22 -40 22 -22 0 13
-15 11 -16 -13 -11 -15 3 -25 1 -22 -4 3 -5 -8 -13 -25 -19 -38 -14 -39 -20
-2 -42 29 -17 29 -18 16 -51 -10 -23 -11 -42 -5 -62 11 -34 39 -139 47 -171 5
-23 4 -23 -91 -23 l-96 0 16 25 c9 14 20 25 25 25 4 0 11 16 15 35 5 27 11 35
27 35 20 0 20 1 5 17 -14 13 -20 14 -32 4 -9 -7 -14 -18 -13 -24 1 -6 -6 -13
-16 -15 -16 -3 -18 0 -12 20 4 12 13 26 19 30 6 5 1 8 -12 8 -13 0 -35 11 -50
25 -15 14 -36 25 -47 25 -11 0 -26 4 -34 9 -19 12 5 26 40 23 33 -3 45 29 18
47 -25 15 -24 31 1 31 13 0 20 7 20 18 0 28 21 42 64 43 23 1 52 5 66 9 23 8
23 8 -10 11 -19 1 -53 3 -75 3 l-40 1 -2 267 c-1 187 1 270 9 274 10 7 127 28
221 41 l37 5 0 -216 c0 -182 2 -216 15 -216 11 0 15 28 17 160 2 88 1 160 -2
160 -3 0 -3 28 1 63 3 34 4 133 1 220 -4 123 -8 157 -18 157 -11 0 -14 -29
-14 -140 l0 -140 -27 -11 c-16 -6 -48 -12 -73 -13 -25 0 -47 -4 -50 -8 -3 -3
-28 -8 -55 -10 l-50 -3 3 45 c5 79 52 176 52 108 0 -15 3 -19 10 -12 7 7 7 21
-1 43 -12 33 -4 56 10 32 7 -10 10 -10 16 -1 4 7 2 16 -5 20 -9 5 -7 17 8 49
l20 41 -949 0 -949 0 0 -555z m1290 450 c38 -20 72 -77 70 -117 -3 -49 -2 -53
20 -78 18 -21 19 -25 5 -33 -8 -4 -13 -12 -10 -18 10 -14 -11 -11 -24 5 -7 8
-9 25 -5 40 5 20 2 26 -10 26 -12 0 -14 7 -10 30 8 36 -3 83 -17 75 -5 -4 -9
-3 -8 2 5 27 -5 46 -33 63 -38 23 -21 27 22 5z m-1017 -25 c-3 -11 -9 -20 -14
-20 -10 0 -12 33 -3 43 12 12 22 -3 17 -23z m962 -31 c11 -17 -1 -22 -24 -9
-12 6 -21 17 -21 26 0 11 4 12 19 4 11 -5 23 -15 26 -21z m-792 -19 c-3 -12 0
-20 8 -20 7 0 9 -3 6 -7 -4 -3 -2 -12 4 -19 17 -20 4 -43 -20 -37 -18 4 -21
13 -21 52 0 26 3 51 6 54 12 12 22 -3 17 -23z m759 -29 c14 -16 32 -39 38 -52
7 -12 17 -28 22 -33 4 -6 17 -22 28 -35 11 -13 21 -33 21 -45 1 -15 3 -13 9 9
6 24 8 26 9 8 0 -13 1 -26 0 -29 -1 -3 10 -18 23 -32 20 -22 24 -36 22 -72 -1
-25 -3 -62 -3 -83 -1 -31 -7 -41 -33 -58 -33 -21 -33 -21 -5 -15 25 6 27 5 15
-13 -9 -15 -15 -17 -25 -9 -7 6 -13 7 -13 2 0 -5 -5 -1 -11 9 -5 9 -7 22 -3
28 3 6 8 31 11 56 4 39 2 45 -11 40 -10 -4 -16 -1 -16 8 0 8 -4 15 -10 15 -5
0 0 17 11 38 12 20 15 31 8 25 -18 -17 -34 -16 -20 1 6 7 13 32 15 55 4 35 2
40 -10 30 -11 -9 -14 -7 -14 12 0 31 -15 53 -29 45 -6 -4 -14 -1 -17 8 -3 8
-19 18 -35 21 -25 6 -28 10 -23 31 4 16 1 26 -9 30 -20 7 -10 34 12 34 10 0
29 -13 43 -29z m-757 -71 c3 -5 1 -10 -4 -10 -6 0 -11 5 -11 10 0 6 2 10 4 10
3 0 8 -4 11 -10z m452 -72 c11 -13 34 -44 52 -70 l32 -48 -26 10 c-27 10 -108
3 -137 -12 -10 -5 -18 -15 -18 -23 0 -24 22 -65 36 -65 6 0 14 -7 18 -15 3
-10 19 -15 45 -15 31 0 49 7 77 32 33 30 35 33 18 45 -10 7 -34 13 -53 13 -25
0 -32 3 -24 11 18 18 81 -1 108 -33 27 -31 32 -53 15 -63 -6 -4 -10 -12 -9
-18 1 -7 -3 -25 -9 -40 -15 -36 -15 -90 -1 -104 8 -8 3 -20 -20 -44 -17 -17
-31 -36 -31 -40 0 -4 -25 -25 -56 -45 -48 -32 -58 -35 -80 -26 -29 14 -31 32
-4 55 11 9 20 23 20 31 0 8 9 18 20 21 25 8 27 25 3 23 -22 -2 -103 13 -103
19 0 9 25 29 45 37 19 7 19 8 -5 21 -14 8 -33 12 -42 9 -12 -4 -18 0 -18 10 0
9 5 16 11 16 18 0 2 130 -18 152 -14 16 -15 25 -4 74 9 41 18 58 32 61 10 3
19 9 19 14 0 12 37 28 66 28 11 1 30 -9 41 -21z m293 -218 c0 -11 -2 -20 -5
-20 -2 0 -9 9 -15 20 -9 16 -8 20 5 20 8 0 15 -9 15 -20z m-8 -70 c-17 -30
-32 -39 -32 -19 0 8 37 47 47 49 1 0 -6 -13 -15 -30z m-1065 -5 c-12 -26 -33
-36 -24 -11 3 7 0 19 -6 25 -8 8 -4 11 15 11 24 0 25 -2 15 -25z m194 -49
c-12 -7 -18 -16 -14 -20 4 -5 -1 -7 -12 -4 -32 6 -31 36 2 40 39 5 50 -3 24
-16z m194 -7 c11 -17 -1 -21 -15 -4 -8 9 -8 15 -2 15 6 0 14 -5 17 -11z m-45
-30 c0 -5 -4 -9 -10 -9 -5 0 -10 7 -10 16 0 8 5 12 10 9 6 -3 10 -10 10 -16z
m1228 -26 c-2 -11 -14 -19 -31 -21 -29 -4 -35 6 -15 26 19 19 50 15 46 -5z
m-934 -82 c26 -35 44 -66 41 -69 -3 -3 -7 -3 -8 -1 -29 36 -86 119 -91 134 -9
26 0 15 58 -64z m347 -104 c-9 -9 -14 -8 -21 3 -16 24 -11 31 11 19 16 -8 18
-14 10 -22z m886 -33 c-3 -3 -12 -4 -19 -1 -8 3 -5 6 6 6 11 1 17 -2 13 -5z
m-1918 -90 c3 -16 1 -17 -13 -5 -19 16 -21 34 -3 29 6 -3 14 -13 16 -24z m651
2 c0 -2 -11 -6 -25 -8 -13 -3 -22 -1 -19 3 5 9 44 13 44 5z m-524 -199 c8 -4
14 -20 13 -35 l0 -27 -10 24 c-9 23 -10 24 -24 5 -8 -10 -15 -27 -15 -36 0
-38 -20 -16 -20 22 0 39 30 89 39 65 2 -5 10 -14 17 -18z m396 -78 c57 -19
123 -50 75 -35 -23 7 -18 -13 6 -28 13 -8 20 -7 27 4 5 8 10 10 10 4 0 -6 -7
-17 -15 -24 -11 -10 -18 -9 -30 4 -9 9 -26 18 -38 21 -83 19 -123 25 -204 31
-76 6 -92 10 -96 25 -3 11 2 20 12 23 35 11 193 -5 253 -25z m-292 -14 c0 -33
-16 -40 -34 -13 -21 30 -20 33 9 36 20 1 25 -3 25 -23z m821 -28 c-25 -27 -21
-47 13 -63 18 -8 28 -8 35 -1 17 17 13 0 -9 -43 -11 -22 -17 -40 -13 -40 5 0
2 -4 -6 -9 -11 -7 -12 -13 -3 -23 18 -22 -2 -41 -42 -40 -19 1 -38 -3 -41 -9
-9 -13 -35 8 -35 28 0 10 -7 14 -19 10 -17 -4 -18 -1 -10 26 5 16 6 33 3 38
-6 11 27 49 38 43 4 -3 27 20 50 51 24 30 47 55 52 55 5 0 0 -11 -13 -23z
m-856 -7 c3 -5 -3 -10 -14 -10 -11 0 -23 5 -26 10 -3 6 3 10 14 10 11 0 23 -4
26 -10z m244 -4 c7 -8 33 -20 58 -28 29 -8 48 -20 51 -31 2 -10 10 -16 16 -14
55 21 59 20 52 -7 -10 -40 -59 -114 -73 -109 -6 2 -19 -7 -28 -20 -12 -19 -22
-24 -48 -21 -19 3 -36 -1 -42 -9 -21 -29 -65 -21 -65 12 0 6 -5 11 -11 11 -13
0 -39 25 -39 38 0 5 -15 25 -34 44 -32 33 -33 36 -20 67 11 26 18 31 31 26 10
-4 29 -9 43 -11 22 -4 23 -3 5 5 -11 5 -38 16 -60 24 -40 15 -40 15 -15 26 39
15 165 14 179 -3z m495 -28 c-4 -7 -21 -33 -38 -58 -17 -24 -34 -49 -38 -54
-5 -7 -11 -7 -19 1 -14 14 1 42 51 91 31 32 58 43 44 20z m-874 -12 c0 -11
-19 -15 -25 -6 -3 5 1 10 9 10 9 0 16 -2 16 -4z m-3 -58 c-3 -8 -6 -5 -6 6 -1
11 2 17 5 13 3 -3 4 -12 1 -19z m88 -158 c18 -1 18 -2 3 -10 -10 -6 -41 -7
-75 -4 -43 6 -52 9 -38 15 11 5 36 6 55 4 19 -3 44 -5 55 -5z m640 -19 c3 -5
1 -12 -5 -16 -5 -3 -10 1 -10 9 0 18 6 21 15 7z m-407 -19 c73 -5 84 -22 13
-22 -53 0 -111 17 -111 32 0 6 7 7 18 3 9 -5 45 -10 80 -13z m127 -2 c3 -5 1
-10 -4 -10 -6 0 -11 5 -11 10 0 6 2 10 4 10 3 0 8 -4 11 -10z m1449 -241 c-11
-18 -24 -8 -24 19 1 26 1 26 15 8 8 -10 12 -23 9 -27z m-664 11 c0 -5 -5 -10
-11 -10 -5 0 -7 5 -4 10 3 6 8 10 11 10 2 0 4 -4 4 -10z m685 -120 c3 -6 -3
-10 -14 -10 -10 0 -21 -6 -24 -12 -2 -7 -8 -10 -12 -6 -9 8 15 37 32 38 6 0
15 -4 18 -10z"/>
<path d="M1320 1549 c0 -11 4 -18 10 -14 5 3 7 12 3 20 -7 21 -13 19 -13 -6z"/>
<path d="M1329 1518 c-12 -42 4 -76 22 -47 14 22 10 49 -6 49 -8 0 -15 -1 -16
-2z"/>
<path d="M780 1416 c0 -2 7 -7 16 -10 8 -3 12 -2 9 4 -6 10 -25 14 -25 6z"/>
<path d="M545 631 c-59 -7 -50 -18 18 -20 36 -1 47 2 47 14 0 8 -3 14 -7 13
-5 0 -30 -4 -58 -7z"/>
<path d="M2050 1261 c0 -11 5 -23 10 -26 6 -3 10 3 10 14 0 11 -4 23 -10 26
-5 3 -10 -3 -10 -14z"/>
<path d="M1780 414 c0 -13 3 -14 14 -5 11 10 16 8 21 -8 9 -28 22 -26 27 4 5
23 2 25 -28 25 -25 0 -34 -4 -34 -16z"/>
</g>
</svg>
